Coordinates
version=1
nRows=14
nColumns=24
inDegrees=yes

Units are S.I. units (second, meters, Newtons, ...)
Angles are in degrees.

endheader
time	pelvis_tilt	pelvis_list	pelvis_rotation	pelvis_tx	pelvis_ty	pelvis_tz	hip_flexion_r	hip_adduction_r	hip_rotation_r	knee_angle_r	ankle_angle_r	subtalar_angle_r	mtp_angle_r	hip_flexion_l	hip_adduction_l	hip_rotation_l	knee_angle_l	ankle_angle_l	subtalar_angle_l	mtp_angle_l	lumbar_extension	lumbar_bending	lumbar_rotation
      2.87000000	     -8.99493024	     -6.48533224	      8.06587638	     -1.77730991	     -0.03962760	      0.62293180	     33.34622564	      3.00983276	     -2.30080370	    -34.26054809	      1.38817409	     -2.29288453	     17.25291037	     11.94855663	     -7.22252183	      3.39459253	    -55.98620900	    -27.34367934	      6.05127484	     24.37292128	      9.29219885	     13.00281959	    -11.11244974
      2.87500000	     -8.94431280	     -6.49961800	      7.81151655	     -1.77055590	     -0.03888058	      0.62368779	     32.83999835	      3.29995293	     -2.09146588	    -34.22805070	      1.84878122	     -2.29894971	     16.73887530	     12.93806742	     -7.23566645	      3.06098656	    -57.55072329	    -26.40014481	      6.30776705	     25.43860997	      9.17467522	     13.10375078	    -10.64302665
      2.88000000	     -8.90127358	     -6.51918908	      7.64526837	     -1.76372027	     -0.03800351	      0.62431673	     32.29201749	      3.54400954	     -1.92962067	    -34.12930105	      2.35320521	     -2.23044081	     16.22231616	     13.93132464	     -7.24204061	      2.80285693	    -58.98403390	    -25.53728918	      6.49596211	     27.07056877	      9.11855543	     13.18258633	    -10.34459031
      2.88500000	     -8.81441760	     -6.41067194	      7.45971453	     -1.75699562	     -0.03693579	      0.62489021	     31.66953942	      3.66944785	     -1.68206699	    -33.98535584	      2.74501950	     -2.15879297	     16.21515040	     14.83847018	     -7.10021991	      2.52729172	    -60.34602385	    -24.34033500	      6.86270262	     28.01290140	      8.97121660	     13.14067108	     -9.97391567
      2.89000000	     -8.79260826	     -6.34875799	      7.28972819	     -1.75029504	     -0.03587290	      0.62562955	     31.11293485	      3.83799708	     -1.51767086	    -33.81246633	      3.03558918	     -2.34320638	     15.91123301	     15.82948066	     -7.03480552	      2.27398035	    -61.59494660	    -23.37474181	      7.27230361	     29.59460399	      8.90993784	     13.10651674	     -9.63334942
      2.89500000	     -8.69932488	     -6.23933034	      7.10960662	     -1.74352264	     -0.03464054	      0.62618960	     30.42346104	      3.94045705	     -1.30764314	    -33.56522462	      3.45114970	     -2.16630777	     15.94903801	     16.71338299	     -6.92599179	      1.94491666	    -62.76547012	    -22.34546203	      7.52611377	     30.35126636	      8.78414297	     13.05032742	     -9.32181234
      2.90000000	     -8.65317892	     -6.13092941	      6.93178132	     -1.73679312	     -0.03339416	      0.62686181	     29.76854150	      4.05014681	     -1.09043546	    -33.27629615	      3.75476635	     -2.19906781	     15.85621341	     17.64161464	     -6.82076767	      1.66340979	    -63.84266848	    -21.40811510	      7.89073461	     31.13442003	      8.71157156	     12.96828568	     -8.99591025
      2.90500000	     -8.60851456	     -6.05535494	      6.76813809	     -1.73007422	     -0.03211263	      0.62749592	     29.08906612	      4.17455499	     -0.90385112	    -32.93050563	      4.03352917	     -2.23131072	     15.73143120	     18.57804158	     -6.75617968	      1.38341294	    -64.83998415	    -20.67301975	      8.06724789	     31.76804993	      8.65720590	     12.91689019	     -8.70857638
      2.91000000	     -8.57064542	     -5.98873665	      6.61106248	     -1.72337236	     -0.03080962	      0.62811654	     28.39396896	      4.29589665	     -0.72844000	    -32.53955208	      4.28778520	     -2.26972199	     15.57980419	     19.51655617	     -6.70043370	      1.11733101	    -65.75434701	    -20.10453356	      8.12080475	     32.23107563	      8.61933512	     12.86807649	     -8.42862483
      2.91500000	     -8.52996662	     -5.93168564	      6.46279422	     -1.71670697	     -0.02949804	      0.62869390	     27.67807020	      4.40992742	     -0.58104512	    -32.10929092	      4.52481566	     -2.29775740	     15.44651052	     20.44921609	     -6.64996882	      0.86229257	    -66.59393833	    -19.68950737	      8.00886677	     32.48902861	      8.58228521	     12.82991957	     -8.17319527
      2.92000000	     -8.48825034	     -5.88133491	      6.32639809	     -1.71002463	     -0.02817243	      0.62921486	     26.93614943	      4.51490874	     -0.44514271	    -31.63274847	      4.73776637	     -2.30191977	     15.36449814	     21.36099022	     -6.59435568	      0.63106847	    -67.34347106	    -19.35708219	      7.77397244	     32.61572330	      8.56002391	     12.79688508	     -7.94644214
      2.92500000	     -8.46258012	     -5.87207825	      6.15891222	     -1.70339005	     -0.02690801	      0.62975628	     26.20559505	      4.67009153	     -0.27957527	    -31.12756871	      4.93436971	     -2.30355724	     15.26376636	     22.29234078	     -6.59447420	      0.38504678	    -68.03684193	    -19.13710781	      7.41631043	     32.61212519	      8.54824405	     12.81402862	     -7.68256769
      2.93000000	     -8.50107723	     -5.82614766	      5.91230023	     -1.69677036	     -0.02577208	      0.63039006	     25.55452380	      4.81967192	     -0.02792940	    -30.66846914	      5.23122496	     -2.29557931	     14.65857497	     23.27576989	     -6.58056592	      0.02657411	    -68.72258887	    -18.73167414	      6.96397589	     31.58326624	      8.58217336	     12.79850946	     -7.32312524
      2.93500000	     -8.46184515	     -5.81642935	      5.75689760	     -1.69017242	     -0.02453779	      0.63088008	     24.78657735	      4.96575285	      0.14144103	    -30.11515635	      5.39385700	     -2.37573198	     14.52793051	     24.16346029	     -6.56791312	     -0.21218291	    -69.25513791	    -18.60355623	      6.32655410	     31.37543548	      8.55846946	     12.81449888	     -7.10062105
